<?xml version="1.0" encoding="UTF-8"?>
<svg width="541px" height="143px" viewBox="0 0 541 143" version="1.1" xmlns="http://www.w3.org/2000/svg" xmlns:xlink="http://www.w3.org/1999/xlink">
    <!-- Generator: Sketch 48.2 (47327) - http://www.bohemiancoding.com/sketch -->
    <title>Basic Square@2x</title>
    <desc>Created with Sketch.</desc>
    <defs></defs>
    <g id="Page-1" stroke="none" stroke-width="1" fill="none" fill-rule="evenodd">
        <g id="Basic-Square">
            <g id="Group" stroke-linecap="round" stroke-linejoin="round" transform="translate(1.000000, 1.000000)" fill="#F4F6F8" fill-rule="nonzero" stroke="#0F2D59">
                <polygon id="Shape" points="77.8666667 82 77.8666667 118.666667 48 118.666667 48 126 104 126 104 118.666667 85.3333333 118.666667 85.3333333 82"></polygon>
                <path d="M89,122.5 C89,126.642136 85.6421356,130 81.5,130 C77.3578644,130 74,126.642136 74,122.5 C74,118.357864 77.3578644,115 81.5,115 C85.6421356,115 89,118.357864 89,122.5 Z" id="Shape"></path>
                <polygon id="Shape" points="11.0625 23 0 37.75 0 141 59 141 59 37.75 47.9375 23"></polygon>
                <polygon id="Shape" points="8 45 8 100 52 100 52 45"></polygon>
                <path d="M8,93.2727273 L52,93.2727273 M8,82.0909091 L52,82.0909091 M8,74.6363636 L52,74.6363636 M8,63.4545455 L52,63.4545455 M8,56 L52,56" id="Shape"></path>
                <path d="M44.3333333,129 L44.3333333,111 M37,129 L37,111 M29.6666667,129 L29.6666667,111 M22.3333333,129 L22.3333333,111 M15,129 L15,111" id="Shape"></path>
                <g id="a-link" transform="translate(70.000000, 0.000000)">
                    <g id="a">
                        <path d="M0.361752717,70.4583333 L0.361752717,85.2155983 C0.361752717,87.5214209 1.74244226,88.9049145 4.04359149,88.9049145 L66.6348505,88.9049145 C68.9359998,88.9049145 70.3166893,87.5214209 70.3166893,85.2155983 L70.3166893,70.4583333 L59.271173,52.0117521 L11.407269,52.0117521 L0.361752717,70.4583333 Z" id="Shape"></path>
                        <polygon id="Shape" points="7.72543025 74.1476496 7.72543025 88.9049145 62.9530118 88.9049145 62.9530118 74.1476496"></polygon>
                        <path d="M55.5893342,81.5262821 L37.1801404,81.5262821" id="Shape"></path>
                        <path d="M18.7709466,52.0117521 L15.0891078,59.3903846 C13.2481884,63.0797009 13.2481884,66.7690171 20.6118659,66.7690171 L50.0665761,66.7690171 C57.4302536,66.7690171 57.4302536,63.0797009 55.5893342,59.3903846 L51.9074955,52.0117521 L18.7709466,52.0117521 Z" id="Shape"></path>
                        <rect id="Rectangle-path" x="26.1346241" y="44.6331197" width="18.4091938" height="14.757265"></rect>
                        <rect id="Rectangle-path" x="0.361752717" y="0.361324786" width="69.9549366" height="51.6504274" rx="1"></rect>
                        <rect id="Rectangle-path" x="7.72543025" y="7.73995726" width="55.2275815" height="36.8931624"></rect>
                    </g>
                </g>
                <g id="a" transform="translate(96.000000, 41.000000)">
                    <path d="M0.361752717,70.4583333 L0.361752717,85.2155983 C0.361752717,87.5214209 1.74244226,88.9049145 4.04359149,88.9049145 L66.6348505,88.9049145 C68.9359998,88.9049145 70.3166893,87.5214209 70.3166893,85.2155983 L70.3166893,70.4583333 L59.271173,52.0117521 L11.407269,52.0117521 L0.361752717,70.4583333 Z" id="Shape"></path>
                    <polygon id="Shape" points="7.72543025 74.1476496 7.72543025 88.9049145 62.9530118 88.9049145 62.9530118 74.1476496"></polygon>
                    <path d="M55.5893342,81.5262821 L37.1801404,81.5262821" id="Shape"></path>
                    <path d="M18.7709466,52.0117521 L15.0891078,59.3903846 C13.2481884,63.0797009 13.2481884,66.7690171 20.6118659,66.7690171 L50.0665761,66.7690171 C57.4302536,66.7690171 57.4302536,63.0797009 55.5893342,59.3903846 L51.9074955,52.0117521 L18.7709466,52.0117521 Z" id="Shape"></path>
                    <rect id="Rectangle-path" x="26.1346241" y="44.6331197" width="18.4091938" height="14.757265"></rect>
                    <rect id="Rectangle-path" x="0.361752717" y="0.361324786" width="69.9549366" height="51.6504274" rx="1"></rect>
                    <rect id="Rectangle-path" x="7.72543025" y="7.73995726" width="55.2275815" height="36.8931624"></rect>
                </g>
            </g>
            <g id="TEXT" transform="translate(187.000000, 1.000000)" fill="#0F2D59" font-family="Lato-Light, Lato" font-weight="300">
                <text id="REMOTE-LOGGING-FOR-N" font-size="20">
                    <tspan x="5" y="115">REMOTE LOGGING FOR NODE APPS</tspan>
                </text>
                <text id="REMLOG" font-size="90" letter-spacing="-1.70000005">
                    <tspan x="0.434782609" y="89.7179487">REMLOG</tspan>
                </text>
            </g>
        </g>
    </g>
</svg>